<mxfile host="app.diagrams.net" modified="2021-06-20T10:40:06.328Z" agent="5.0 (Windows NT 10.0; Win64; x64) AppleWebKit/537.36 (KHTML, like Gecko) Chrome/91.0.4472.106 Safari/537.36" etag="qaEXGTixLeYXH5x6Pfbn" version="14.8.0" type="github">
  <diagram name="Page-1" id="9f46799a-70d6-7492-0946-bef42562c5a5">
    <mxGraphModel dx="1117" dy="623" grid="1" gridSize="10" guides="1" tooltips="1" connect="1" arrows="1" fold="1" page="1" pageScale="1" pageWidth="1100" pageHeight="850" background="#ffffff" math="0" shadow="0">
      <root>
        <mxCell id="0" />
        <mxCell id="1" parent="0" />
        <mxCell id="78961159f06e98e8-17" value="User" style="swimlane;html=1;fontStyle=1;align=center;verticalAlign=top;childLayout=stackLayout;horizontal=1;startSize=26;horizontalStack=0;resizeParent=1;resizeLast=0;collapsible=1;marginBottom=0;swimlaneFillColor=#ffffff;rounded=0;shadow=0;comic=0;labelBackgroundColor=none;strokeWidth=1;fontFamily=Times New Roman;fontSize=13;fillColor=#5EBEA0;" parent="1" vertex="1">
          <mxGeometry x="90" y="80" width="160" height="520" as="geometry">
            <mxRectangle x="90" y="83" width="100" height="26" as="alternateBounds" />
          </mxGeometry>
        </mxCell>
        <mxCell id="6QdSG1pBMYWLXJsXz6J8-28" value="&lt;font style=&quot;font-size: 13px&quot;&gt;&amp;nbsp;- user id&lt;/font&gt;" style="text;html=1;strokeColor=none;fillColor=none;align=left;verticalAlign=middle;whiteSpace=wrap;rounded=0;fontFamily=Times New Roman;fontSize=13;" parent="78961159f06e98e8-17" vertex="1">
          <mxGeometry y="26" width="160" height="20" as="geometry" />
        </mxCell>
        <mxCell id="78961159f06e98e8-21" value="&lt;font style=&quot;font-size: 13px&quot;&gt;- username&lt;/font&gt;" style="text;html=1;strokeColor=none;fillColor=none;align=left;verticalAlign=top;spacingLeft=4;spacingRight=4;whiteSpace=wrap;overflow=hidden;rotatable=0;points=[[0,0.5],[1,0.5]];portConstraint=eastwest;fontFamily=Times New Roman;fontSize=13;" parent="78961159f06e98e8-17" vertex="1">
          <mxGeometry y="46" width="160" height="26" as="geometry" />
        </mxCell>
        <mxCell id="78961159f06e98e8-23" value="&lt;font style=&quot;font-size: 13px&quot;&gt;- password&lt;/font&gt;" style="text;html=1;strokeColor=none;fillColor=none;align=left;verticalAlign=top;spacingLeft=4;spacingRight=4;whiteSpace=wrap;overflow=hidden;rotatable=0;points=[[0,0.5],[1,0.5]];portConstraint=eastwest;fontFamily=Times New Roman;fontSize=13;" parent="78961159f06e98e8-17" vertex="1">
          <mxGeometry y="72" width="160" height="26" as="geometry" />
        </mxCell>
        <mxCell id="78961159f06e98e8-25" value="&lt;font style=&quot;font-size: 13px&quot;&gt;- height&lt;/font&gt;" style="text;html=1;strokeColor=none;fillColor=none;align=left;verticalAlign=top;spacingLeft=4;spacingRight=4;whiteSpace=wrap;overflow=hidden;rotatable=0;points=[[0,0.5],[1,0.5]];portConstraint=eastwest;fontFamily=Times New Roman;fontSize=13;" parent="78961159f06e98e8-17" vertex="1">
          <mxGeometry y="98" width="160" height="26" as="geometry" />
        </mxCell>
        <mxCell id="78961159f06e98e8-26" value="&lt;font style=&quot;font-size: 13px&quot;&gt;- weight&lt;/font&gt;" style="text;html=1;strokeColor=none;fillColor=none;align=left;verticalAlign=top;spacingLeft=4;spacingRight=4;whiteSpace=wrap;overflow=hidden;rotatable=0;points=[[0,0.5],[1,0.5]];portConstraint=eastwest;fontFamily=Times New Roman;fontSize=13;" parent="78961159f06e98e8-17" vertex="1">
          <mxGeometry y="124" width="160" height="26" as="geometry" />
        </mxCell>
        <mxCell id="6QdSG1pBMYWLXJsXz6J8-2" value="&lt;font style=&quot;font-size: 13px&quot;&gt;&amp;nbsp;- bmi&lt;/font&gt;" style="text;html=1;strokeColor=none;fillColor=none;align=left;verticalAlign=middle;whiteSpace=wrap;rounded=0;fontFamily=Times New Roman;fontSize=13;" parent="78961159f06e98e8-17" vertex="1">
          <mxGeometry y="150" width="160" height="20" as="geometry" />
        </mxCell>
        <mxCell id="6QdSG1pBMYWLXJsXz6J8-5" value="&lt;font style=&quot;font-size: 13px&quot;&gt;&amp;nbsp;+ Sign up()&lt;/font&gt;" style="text;html=1;strokeColor=none;fillColor=none;align=left;verticalAlign=middle;whiteSpace=wrap;rounded=0;fontFamily=Times New Roman;fontSize=13;" parent="78961159f06e98e8-17" vertex="1">
          <mxGeometry y="170" width="160" height="28" as="geometry" />
        </mxCell>
        <mxCell id="6QdSG1pBMYWLXJsXz6J8-4" value="&lt;font style=&quot;font-size: 13px&quot;&gt;&amp;nbsp;+ Log in()&lt;/font&gt;" style="text;html=1;strokeColor=none;fillColor=none;align=left;verticalAlign=middle;whiteSpace=wrap;rounded=0;fontFamily=Times New Roman;fontSize=13;" parent="78961159f06e98e8-17" vertex="1">
          <mxGeometry y="198" width="160" height="26" as="geometry" />
        </mxCell>
        <mxCell id="6QdSG1pBMYWLXJsXz6J8-6" value="&lt;font style=&quot;font-size: 13px&quot;&gt;&amp;nbsp;+ Select()&lt;/font&gt;" style="text;html=1;strokeColor=none;fillColor=none;align=left;verticalAlign=middle;whiteSpace=wrap;rounded=0;fontFamily=Times New Roman;fontSize=13;" parent="78961159f06e98e8-17" vertex="1">
          <mxGeometry y="224" width="160" height="28" as="geometry" />
        </mxCell>
        <mxCell id="6QdSG1pBMYWLXJsXz6J8-7" value="&lt;font style=&quot;font-size: 13px&quot;&gt;&amp;nbsp;+ Complete profile info()&lt;/font&gt;" style="text;html=1;strokeColor=none;fillColor=none;align=left;verticalAlign=middle;whiteSpace=wrap;rounded=0;fontFamily=Times New Roman;fontSize=13;" parent="78961159f06e98e8-17" vertex="1">
          <mxGeometry y="252" width="160" height="24" as="geometry" />
        </mxCell>
        <mxCell id="6QdSG1pBMYWLXJsXz6J8-14" value="" style="endArrow=none;html=1;exitX=0;exitY=0;exitDx=0;exitDy=0;entryX=1;entryY=0;entryDx=0;entryDy=0;fontFamily=Times New Roman;fontSize=13;" parent="78961159f06e98e8-17" source="6QdSG1pBMYWLXJsXz6J8-5" target="6QdSG1pBMYWLXJsXz6J8-5" edge="1">
          <mxGeometry width="50" height="50" relative="1" as="geometry">
            <mxPoint x="300" y="250" as="sourcePoint" />
            <mxPoint x="350" y="200" as="targetPoint" />
          </mxGeometry>
        </mxCell>
        <mxCell id="xIkDIPTrsvpT3gbHnP_f-16" value="&lt;font style=&quot;font-size: 13px&quot;&gt;&amp;nbsp;+ View history()&lt;/font&gt;" style="text;html=1;strokeColor=none;fillColor=none;align=left;verticalAlign=middle;whiteSpace=wrap;rounded=0;fontFamily=Times New Roman;fontSize=13;" vertex="1" parent="78961159f06e98e8-17">
          <mxGeometry y="276" width="160" height="30" as="geometry" />
        </mxCell>
        <mxCell id="6QdSG1pBMYWLXJsXz6J8-8" value="&lt;font style=&quot;font-size: 13px&quot;&gt;&amp;nbsp;+ View about us()&lt;/font&gt;" style="text;html=1;strokeColor=none;fillColor=none;align=left;verticalAlign=middle;whiteSpace=wrap;rounded=0;fontFamily=Times New Roman;fontSize=13;" parent="78961159f06e98e8-17" vertex="1">
          <mxGeometry y="306" width="160" height="26" as="geometry" />
        </mxCell>
        <mxCell id="6QdSG1pBMYWLXJsXz6J8-18" value="&lt;font style=&quot;font-size: 13px&quot;&gt;&amp;nbsp;+ View guide()&lt;/font&gt;" style="text;html=1;strokeColor=none;fillColor=none;align=left;verticalAlign=middle;whiteSpace=wrap;rounded=0;fontFamily=Times New Roman;fontSize=13;" parent="78961159f06e98e8-17" vertex="1">
          <mxGeometry y="332" width="160" height="30" as="geometry" />
        </mxCell>
        <mxCell id="xIkDIPTrsvpT3gbHnP_f-17" value="&lt;font style=&quot;font-size: 13px&quot;&gt;&amp;nbsp;+ View recommended()&lt;/font&gt;" style="text;html=1;strokeColor=none;fillColor=none;align=left;verticalAlign=middle;whiteSpace=wrap;rounded=0;fontFamily=Times New Roman;fontSize=13;" vertex="1" parent="78961159f06e98e8-17">
          <mxGeometry y="362" width="160" height="30" as="geometry" />
        </mxCell>
        <mxCell id="xIkDIPTrsvpT3gbHnP_f-18" value="&amp;nbsp;+ Register exercise()" style="text;html=1;strokeColor=none;fillColor=none;align=left;verticalAlign=middle;whiteSpace=wrap;rounded=0;fontFamily=Times New Roman;fontSize=13;" vertex="1" parent="78961159f06e98e8-17">
          <mxGeometry y="392" width="160" height="30" as="geometry" />
        </mxCell>
        <mxCell id="xIkDIPTrsvpT3gbHnP_f-19" value="&amp;nbsp;+ Give rating()" style="text;html=1;strokeColor=none;fillColor=none;align=left;verticalAlign=middle;whiteSpace=wrap;rounded=0;fontFamily=Times New Roman;fontSize=13;" vertex="1" parent="78961159f06e98e8-17">
          <mxGeometry y="422" width="160" height="30" as="geometry" />
        </mxCell>
        <mxCell id="xIkDIPTrsvpT3gbHnP_f-21" value="&amp;nbsp;+ Log out()" style="text;html=1;strokeColor=none;fillColor=none;align=left;verticalAlign=middle;whiteSpace=wrap;rounded=0;fontFamily=Times New Roman;fontSize=13;" vertex="1" parent="78961159f06e98e8-17">
          <mxGeometry y="452" width="160" height="30" as="geometry" />
        </mxCell>
        <mxCell id="78961159f06e98e8-30" value="Exercises" style="swimlane;html=1;fontStyle=1;align=center;verticalAlign=top;childLayout=stackLayout;horizontal=1;startSize=26;horizontalStack=0;resizeParent=1;resizeLast=0;collapsible=1;marginBottom=0;swimlaneFillColor=#ffffff;rounded=0;shadow=0;comic=0;labelBackgroundColor=none;strokeWidth=1;fontFamily=Times New Roman;fontSize=13;fillColor=#5EBEA0;" parent="1" vertex="1">
          <mxGeometry x="640" y="450" width="160" height="350" as="geometry" />
        </mxCell>
        <mxCell id="6QdSG1pBMYWLXJsXz6J8-63" value="&amp;nbsp;- exercise id" style="text;html=1;align=left;verticalAlign=middle;resizable=0;points=[];autosize=1;fontFamily=Times New Roman;fontSize=13;" parent="78961159f06e98e8-30" vertex="1">
          <mxGeometry y="26" width="160" height="20" as="geometry" />
        </mxCell>
        <mxCell id="78961159f06e98e8-34" value="- category id" style="text;html=1;strokeColor=none;fillColor=none;align=left;verticalAlign=top;spacingLeft=4;spacingRight=4;whiteSpace=wrap;overflow=hidden;rotatable=0;points=[[0,0.5],[1,0.5]];portConstraint=eastwest;fontFamily=Times New Roman;fontSize=13;" parent="78961159f06e98e8-30" vertex="1">
          <mxGeometry y="46" width="160" height="26" as="geometry" />
        </mxCell>
        <mxCell id="78961159f06e98e8-33" value="- title" style="text;html=1;strokeColor=none;fillColor=none;align=left;verticalAlign=top;spacingLeft=4;spacingRight=4;whiteSpace=wrap;overflow=hidden;rotatable=0;points=[[0,0.5],[1,0.5]];portConstraint=eastwest;fontFamily=Times New Roman;fontSize=13;" parent="78961159f06e98e8-30" vertex="1">
          <mxGeometry y="72" width="160" height="26" as="geometry" />
        </mxCell>
        <mxCell id="78961159f06e98e8-31" value="- level" style="text;html=1;strokeColor=none;fillColor=none;align=left;verticalAlign=top;spacingLeft=4;spacingRight=4;whiteSpace=wrap;overflow=hidden;rotatable=0;points=[[0,0.5],[1,0.5]];portConstraint=eastwest;fontFamily=Times New Roman;fontSize=13;" parent="78961159f06e98e8-30" vertex="1">
          <mxGeometry y="98" width="160" height="26" as="geometry" />
        </mxCell>
        <mxCell id="xIkDIPTrsvpT3gbHnP_f-4" value="- equipment" style="text;html=1;strokeColor=none;fillColor=none;align=left;verticalAlign=top;spacingLeft=4;spacingRight=4;whiteSpace=wrap;overflow=hidden;rotatable=0;points=[[0,0.5],[1,0.5]];portConstraint=eastwest;fontFamily=Times New Roman;fontSize=13;" vertex="1" parent="78961159f06e98e8-30">
          <mxGeometry y="124" width="160" height="26" as="geometry" />
        </mxCell>
        <mxCell id="xIkDIPTrsvpT3gbHnP_f-7" value="- duration" style="text;html=1;strokeColor=none;fillColor=none;align=left;verticalAlign=top;spacingLeft=4;spacingRight=4;whiteSpace=wrap;overflow=hidden;rotatable=0;points=[[0,0.5],[1,0.5]];portConstraint=eastwest;fontFamily=Times New Roman;fontSize=13;" vertex="1" parent="78961159f06e98e8-30">
          <mxGeometry y="150" width="160" height="26" as="geometry" />
        </mxCell>
        <mxCell id="xIkDIPTrsvpT3gbHnP_f-5" value="- img" style="text;html=1;strokeColor=none;fillColor=none;align=left;verticalAlign=top;spacingLeft=4;spacingRight=4;whiteSpace=wrap;overflow=hidden;rotatable=0;points=[[0,0.5],[1,0.5]];portConstraint=eastwest;fontFamily=Times New Roman;fontSize=13;" vertex="1" parent="78961159f06e98e8-30">
          <mxGeometry y="176" width="160" height="26" as="geometry" />
        </mxCell>
        <mxCell id="xIkDIPTrsvpT3gbHnP_f-3" value="- minBMI" style="text;html=1;strokeColor=none;fillColor=none;align=left;verticalAlign=top;spacingLeft=4;spacingRight=4;whiteSpace=wrap;overflow=hidden;rotatable=0;points=[[0,0.5],[1,0.5]];portConstraint=eastwest;fontFamily=Times New Roman;fontSize=13;" vertex="1" parent="78961159f06e98e8-30">
          <mxGeometry y="202" width="160" height="26" as="geometry" />
        </mxCell>
        <mxCell id="xIkDIPTrsvpT3gbHnP_f-6" value="- maxBMI" style="text;html=1;strokeColor=none;fillColor=none;align=left;verticalAlign=top;spacingLeft=4;spacingRight=4;whiteSpace=wrap;overflow=hidden;rotatable=0;points=[[0,0.5],[1,0.5]];portConstraint=eastwest;fontFamily=Times New Roman;fontSize=13;" vertex="1" parent="78961159f06e98e8-30">
          <mxGeometry y="228" width="160" height="26" as="geometry" />
        </mxCell>
        <mxCell id="78961159f06e98e8-32" value="- avgRating" style="text;html=1;strokeColor=none;fillColor=none;align=left;verticalAlign=top;spacingLeft=4;spacingRight=4;whiteSpace=wrap;overflow=hidden;rotatable=0;points=[[0,0.5],[1,0.5]];portConstraint=eastwest;fontFamily=Times New Roman;fontSize=13;" parent="78961159f06e98e8-30" vertex="1">
          <mxGeometry y="254" width="160" height="26" as="geometry" />
        </mxCell>
        <mxCell id="78961159f06e98e8-38" value="&lt;br style=&quot;font-size: 13px;&quot;&gt;&lt;br style=&quot;font-size: 13px;&quot;&gt;" style="line;html=1;strokeWidth=1;fillColor=none;align=left;verticalAlign=middle;spacingTop=-1;spacingLeft=3;spacingRight=3;rotatable=0;labelPosition=right;points=[];portConstraint=eastwest;fontFamily=Times New Roman;fontSize=13;" parent="78961159f06e98e8-30" vertex="1">
          <mxGeometry y="280" width="160" height="8" as="geometry" />
        </mxCell>
        <mxCell id="6QdSG1pBMYWLXJsXz6J8-20" value="&amp;nbsp;+ Show exercises()" style="text;html=1;strokeColor=none;fillColor=none;align=left;verticalAlign=middle;whiteSpace=wrap;rounded=0;fontFamily=Times New Roman;fontSize=13;" parent="78961159f06e98e8-30" vertex="1">
          <mxGeometry y="288" width="160" height="20" as="geometry" />
        </mxCell>
        <mxCell id="78961159f06e98e8-43" value="Category" style="swimlane;html=1;fontStyle=1;align=center;verticalAlign=top;childLayout=stackLayout;horizontal=1;startSize=26;horizontalStack=0;resizeParent=1;resizeLast=0;collapsible=1;marginBottom=0;swimlaneFillColor=#ffffff;rounded=0;shadow=0;comic=0;labelBackgroundColor=none;strokeWidth=1;fontFamily=Times New Roman;fontSize=13;fillColor=#5EBEA0;" parent="1" vertex="1">
          <mxGeometry x="410" y="80" width="160" height="197" as="geometry" />
        </mxCell>
        <mxCell id="78961159f06e98e8-44" value="- category id" style="text;html=1;strokeColor=none;fillColor=none;align=left;verticalAlign=top;spacingLeft=4;spacingRight=4;whiteSpace=wrap;overflow=hidden;rotatable=0;points=[[0,0.5],[1,0.5]];portConstraint=eastwest;fontFamily=Times New Roman;fontSize=13;" parent="78961159f06e98e8-43" vertex="1">
          <mxGeometry y="26" width="160" height="26" as="geometry" />
        </mxCell>
        <mxCell id="78961159f06e98e8-50" value="- title" style="text;html=1;strokeColor=none;fillColor=none;align=left;verticalAlign=top;spacingLeft=4;spacingRight=4;whiteSpace=wrap;overflow=hidden;rotatable=0;points=[[0,0.5],[1,0.5]];portConstraint=eastwest;fontFamily=Times New Roman;fontSize=13;" parent="78961159f06e98e8-43" vertex="1">
          <mxGeometry y="52" width="160" height="26" as="geometry" />
        </mxCell>
        <mxCell id="78961159f06e98e8-45" value="- img" style="text;html=1;strokeColor=none;fillColor=none;align=left;verticalAlign=top;spacingLeft=4;spacingRight=4;whiteSpace=wrap;overflow=hidden;rotatable=0;points=[[0,0.5],[1,0.5]];portConstraint=eastwest;fontFamily=Times New Roman;fontSize=13;" parent="78961159f06e98e8-43" vertex="1">
          <mxGeometry y="78" width="160" height="26" as="geometry" />
        </mxCell>
        <mxCell id="78961159f06e98e8-51" value="" style="line;html=1;strokeWidth=1;fillColor=none;align=left;verticalAlign=middle;spacingTop=-1;spacingLeft=3;spacingRight=3;rotatable=0;labelPosition=right;points=[];portConstraint=eastwest;fontFamily=Times New Roman;fontSize=13;" parent="78961159f06e98e8-43" vertex="1">
          <mxGeometry y="104" width="160" height="8" as="geometry" />
        </mxCell>
        <mxCell id="6QdSG1pBMYWLXJsXz6J8-19" value="&amp;nbsp;+ All workouts()" style="text;html=1;strokeColor=none;fillColor=none;align=left;verticalAlign=middle;whiteSpace=wrap;rounded=0;fontFamily=Times New Roman;fontSize=13;" parent="78961159f06e98e8-43" vertex="1">
          <mxGeometry y="112" width="160" height="20" as="geometry" />
        </mxCell>
        <mxCell id="6QdSG1pBMYWLXJsXz6J8-21" value="Sessions" style="swimlane;html=1;fontStyle=1;align=center;verticalAlign=top;childLayout=stackLayout;horizontal=1;startSize=26;horizontalStack=0;resizeParent=1;resizeLast=0;collapsible=1;marginBottom=0;swimlaneFillColor=#ffffff;rounded=0;shadow=0;comic=0;labelBackgroundColor=none;strokeWidth=1;fontFamily=Times New Roman;fontSize=13;fillColor=#5EBEA0;" parent="1" vertex="1">
          <mxGeometry x="720" y="120" width="160" height="220" as="geometry" />
        </mxCell>
        <mxCell id="6QdSG1pBMYWLXJsXz6J8-22" value="- session id" style="text;html=1;strokeColor=none;fillColor=none;align=left;verticalAlign=top;spacingLeft=4;spacingRight=4;whiteSpace=wrap;overflow=hidden;rotatable=0;points=[[0,0.5],[1,0.5]];portConstraint=eastwest;fontFamily=Times New Roman;fontSize=13;" parent="6QdSG1pBMYWLXJsXz6J8-21" vertex="1">
          <mxGeometry y="26" width="160" height="26" as="geometry" />
        </mxCell>
        <mxCell id="6QdSG1pBMYWLXJsXz6J8-23" value="- exercise id" style="text;html=1;strokeColor=none;fillColor=none;align=left;verticalAlign=top;spacingLeft=4;spacingRight=4;whiteSpace=wrap;overflow=hidden;rotatable=0;points=[[0,0.5],[1,0.5]];portConstraint=eastwest;fontFamily=Times New Roman;fontSize=13;" parent="6QdSG1pBMYWLXJsXz6J8-21" vertex="1">
          <mxGeometry y="52" width="160" height="26" as="geometry" />
        </mxCell>
        <mxCell id="6QdSG1pBMYWLXJsXz6J8-24" value="- title" style="text;html=1;strokeColor=none;fillColor=none;align=left;verticalAlign=top;spacingLeft=4;spacingRight=4;whiteSpace=wrap;overflow=hidden;rotatable=0;points=[[0,0.5],[1,0.5]];portConstraint=eastwest;fontFamily=Times New Roman;fontSize=13;" parent="6QdSG1pBMYWLXJsXz6J8-21" vertex="1">
          <mxGeometry y="78" width="160" height="26" as="geometry" />
        </mxCell>
        <mxCell id="6QdSG1pBMYWLXJsXz6J8-25" value="- duration" style="text;html=1;strokeColor=none;fillColor=none;align=left;verticalAlign=top;spacingLeft=4;spacingRight=4;whiteSpace=wrap;overflow=hidden;rotatable=0;points=[[0,0.5],[1,0.5]];portConstraint=eastwest;fontFamily=Times New Roman;fontSize=13;" parent="6QdSG1pBMYWLXJsXz6J8-21" vertex="1">
          <mxGeometry y="104" width="160" height="26" as="geometry" />
        </mxCell>
        <mxCell id="6QdSG1pBMYWLXJsXz6J8-30" value="&amp;nbsp;- img" style="text;html=1;strokeColor=none;fillColor=none;align=left;verticalAlign=middle;whiteSpace=wrap;rounded=0;fontFamily=Times New Roman;fontSize=13;" parent="6QdSG1pBMYWLXJsXz6J8-21" vertex="1">
          <mxGeometry y="130" width="160" height="20" as="geometry" />
        </mxCell>
        <mxCell id="6QdSG1pBMYWLXJsXz6J8-26" value="" style="line;html=1;strokeWidth=1;fillColor=none;align=left;verticalAlign=middle;spacingTop=-1;spacingLeft=3;spacingRight=3;rotatable=0;labelPosition=right;points=[];portConstraint=eastwest;fontFamily=Times New Roman;fontSize=13;" parent="6QdSG1pBMYWLXJsXz6J8-21" vertex="1">
          <mxGeometry y="150" width="160" height="8" as="geometry" />
        </mxCell>
        <mxCell id="6QdSG1pBMYWLXJsXz6J8-31" value="&amp;nbsp;+ Show sessions()" style="text;html=1;strokeColor=none;fillColor=none;align=left;verticalAlign=middle;whiteSpace=wrap;rounded=0;fontFamily=Times New Roman;fontSize=13;" parent="6QdSG1pBMYWLXJsXz6J8-21" vertex="1">
          <mxGeometry y="158" width="160" height="20" as="geometry" />
        </mxCell>
        <mxCell id="6QdSG1pBMYWLXJsXz6J8-39" value="" style="endArrow=none;html=1;edgeStyle=orthogonalEdgeStyle;entryX=-0.017;entryY=0.085;entryDx=0;entryDy=0;entryPerimeter=0;exitX=0.75;exitY=0;exitDx=0;exitDy=0;fontFamily=Times New Roman;fontSize=13;strokeColor=#28408E;" parent="1" edge="1" target="6QdSG1pBMYWLXJsXz6J8-21" source="78961159f06e98e8-30">
          <mxGeometry relative="1" as="geometry">
            <mxPoint x="580" y="424" as="sourcePoint" />
            <mxPoint x="660" y="140" as="targetPoint" />
            <Array as="points">
              <mxPoint x="760" y="424" />
              <mxPoint x="640" y="424" />
              <mxPoint x="640" y="139" />
            </Array>
          </mxGeometry>
        </mxCell>
        <mxCell id="6QdSG1pBMYWLXJsXz6J8-40" value="1" style="edgeLabel;resizable=0;html=1;align=left;verticalAlign=bottom;fontFamily=Times New Roman;fontSize=13;" parent="6QdSG1pBMYWLXJsXz6J8-39" connectable="0" vertex="1">
          <mxGeometry x="-1" relative="1" as="geometry" />
        </mxCell>
        <mxCell id="6QdSG1pBMYWLXJsXz6J8-41" value="0..*" style="edgeLabel;resizable=0;html=1;align=right;verticalAlign=bottom;fontFamily=Times New Roman;fontSize=13;" parent="6QdSG1pBMYWLXJsXz6J8-39" connectable="0" vertex="1">
          <mxGeometry x="1" relative="1" as="geometry" />
        </mxCell>
        <mxCell id="6QdSG1pBMYWLXJsXz6J8-53" value="" style="endArrow=none;html=1;edgeStyle=orthogonalEdgeStyle;exitX=1;exitY=0.25;exitDx=0;exitDy=0;fontFamily=Times New Roman;fontSize=13;strokeColor=#28408E;" parent="1" source="6QdSG1pBMYWLXJsXz6J8-28" edge="1">
          <mxGeometry relative="1" as="geometry">
            <mxPoint x="280" y="298.5" as="sourcePoint" />
            <mxPoint x="340" y="580" as="targetPoint" />
            <Array as="points">
              <mxPoint x="290" y="111" />
              <mxPoint x="290" y="580" />
            </Array>
          </mxGeometry>
        </mxCell>
        <mxCell id="6QdSG1pBMYWLXJsXz6J8-54" value="1" style="edgeLabel;resizable=0;html=1;align=left;verticalAlign=bottom;fontFamily=Times New Roman;fontSize=13;" parent="6QdSG1pBMYWLXJsXz6J8-53" connectable="0" vertex="1">
          <mxGeometry x="-1" relative="1" as="geometry" />
        </mxCell>
        <mxCell id="6QdSG1pBMYWLXJsXz6J8-57" value="" style="endArrow=none;html=1;edgeStyle=orthogonalEdgeStyle;fontFamily=Times New Roman;fontSize=13;strokeColor=#28408E;" parent="1" edge="1">
          <mxGeometry relative="1" as="geometry">
            <mxPoint x="500" y="280" as="sourcePoint" />
            <mxPoint x="630" y="460" as="targetPoint" />
            <Array as="points">
              <mxPoint x="500" y="320" />
              <mxPoint x="500" y="320" />
            </Array>
          </mxGeometry>
        </mxCell>
        <mxCell id="6QdSG1pBMYWLXJsXz6J8-59" value="0..*" style="edgeLabel;resizable=0;html=1;align=right;verticalAlign=bottom;fontFamily=Times New Roman;fontSize=13;" parent="6QdSG1pBMYWLXJsXz6J8-57" connectable="0" vertex="1">
          <mxGeometry x="1" relative="1" as="geometry" />
        </mxCell>
        <mxCell id="6QdSG1pBMYWLXJsXz6J8-60" value="1" style="text;html=1;align=center;verticalAlign=middle;resizable=0;points=[];autosize=1;fontFamily=Times New Roman;fontSize=13;" parent="1" vertex="1">
          <mxGeometry x="480" y="280" width="20" height="20" as="geometry" />
        </mxCell>
        <mxCell id="6QdSG1pBMYWLXJsXz6J8-64" value="0..*" style="text;html=1;align=center;verticalAlign=middle;resizable=0;points=[];autosize=1;fontFamily=Times New Roman;fontSize=13;" parent="1" vertex="1">
          <mxGeometry x="310" y="560" width="30" height="20" as="geometry" />
        </mxCell>
        <mxCell id="xIkDIPTrsvpT3gbHnP_f-8" value="History" style="swimlane;html=1;fontStyle=1;align=center;verticalAlign=top;childLayout=stackLayout;horizontal=1;startSize=26;horizontalStack=0;resizeParent=1;resizeLast=0;collapsible=1;marginBottom=0;swimlaneFillColor=#ffffff;rounded=0;shadow=0;comic=0;labelBackgroundColor=none;strokeWidth=1;fontFamily=Times New Roman;fontSize=13;fillColor=#5EBEA0;" vertex="1" parent="1">
          <mxGeometry x="340" y="560" width="160" height="197" as="geometry" />
        </mxCell>
        <mxCell id="xIkDIPTrsvpT3gbHnP_f-9" value="- history id" style="text;html=1;strokeColor=none;fillColor=none;align=left;verticalAlign=top;spacingLeft=4;spacingRight=4;whiteSpace=wrap;overflow=hidden;rotatable=0;points=[[0,0.5],[1,0.5]];portConstraint=eastwest;fontFamily=Times New Roman;fontSize=13;" vertex="1" parent="xIkDIPTrsvpT3gbHnP_f-8">
          <mxGeometry y="26" width="160" height="26" as="geometry" />
        </mxCell>
        <mxCell id="xIkDIPTrsvpT3gbHnP_f-10" value="- user id" style="text;html=1;strokeColor=none;fillColor=none;align=left;verticalAlign=top;spacingLeft=4;spacingRight=4;whiteSpace=wrap;overflow=hidden;rotatable=0;points=[[0,0.5],[1,0.5]];portConstraint=eastwest;fontFamily=Times New Roman;fontSize=13;" vertex="1" parent="xIkDIPTrsvpT3gbHnP_f-8">
          <mxGeometry y="52" width="160" height="26" as="geometry" />
        </mxCell>
        <mxCell id="xIkDIPTrsvpT3gbHnP_f-11" value="- exercise id" style="text;html=1;strokeColor=none;fillColor=none;align=left;verticalAlign=top;spacingLeft=4;spacingRight=4;whiteSpace=wrap;overflow=hidden;rotatable=0;points=[[0,0.5],[1,0.5]];portConstraint=eastwest;fontFamily=Times New Roman;fontSize=13;" vertex="1" parent="xIkDIPTrsvpT3gbHnP_f-8">
          <mxGeometry y="78" width="160" height="26" as="geometry" />
        </mxCell>
        <mxCell id="xIkDIPTrsvpT3gbHnP_f-12" value="- rating" style="text;html=1;strokeColor=none;fillColor=none;align=left;verticalAlign=top;spacingLeft=4;spacingRight=4;whiteSpace=wrap;overflow=hidden;rotatable=0;points=[[0,0.5],[1,0.5]];portConstraint=eastwest;fontFamily=Times New Roman;fontSize=13;" vertex="1" parent="xIkDIPTrsvpT3gbHnP_f-8">
          <mxGeometry y="104" width="160" height="26" as="geometry" />
        </mxCell>
        <mxCell id="xIkDIPTrsvpT3gbHnP_f-14" value="" style="line;html=1;strokeWidth=1;fillColor=none;align=left;verticalAlign=middle;spacingTop=-1;spacingLeft=3;spacingRight=3;rotatable=0;labelPosition=right;points=[];portConstraint=eastwest;fontFamily=Times New Roman;fontSize=13;" vertex="1" parent="xIkDIPTrsvpT3gbHnP_f-8">
          <mxGeometry y="130" width="160" height="8" as="geometry" />
        </mxCell>
        <mxCell id="xIkDIPTrsvpT3gbHnP_f-15" value="&amp;nbsp;+ Show history()" style="text;html=1;strokeColor=none;fillColor=none;align=left;verticalAlign=middle;whiteSpace=wrap;rounded=0;fontFamily=Times New Roman;fontSize=13;" vertex="1" parent="xIkDIPTrsvpT3gbHnP_f-8">
          <mxGeometry y="138" width="160" height="20" as="geometry" />
        </mxCell>
        <mxCell id="xIkDIPTrsvpT3gbHnP_f-20" value="&amp;nbsp;+ Play sessions()" style="text;html=1;strokeColor=none;fillColor=none;align=left;verticalAlign=middle;whiteSpace=wrap;rounded=0;fontFamily=Times New Roman;fontSize=13;" vertex="1" parent="1">
          <mxGeometry x="720" y="300" width="160" height="20" as="geometry" />
        </mxCell>
        <mxCell id="xIkDIPTrsvpT3gbHnP_f-22" value="" style="endArrow=none;html=1;edgeStyle=orthogonalEdgeStyle;exitX=-0.004;exitY=0.267;exitDx=0;exitDy=0;exitPerimeter=0;fontFamily=Times New Roman;fontSize=13;strokeColor=#28408E;" edge="1" parent="1" source="6QdSG1pBMYWLXJsXz6J8-63">
          <mxGeometry relative="1" as="geometry">
            <mxPoint x="580" y="440" as="sourcePoint" />
            <mxPoint x="510" y="580" as="targetPoint" />
            <Array as="points">
              <mxPoint x="580" y="481" />
              <mxPoint x="580" y="580" />
            </Array>
          </mxGeometry>
        </mxCell>
        <mxCell id="xIkDIPTrsvpT3gbHnP_f-23" value="0..*" style="edgeLabel;resizable=0;html=1;align=right;verticalAlign=bottom;fontFamily=Times New Roman;fontSize=13;" connectable="0" vertex="1" parent="xIkDIPTrsvpT3gbHnP_f-22">
          <mxGeometry x="1" relative="1" as="geometry">
            <mxPoint x="20" y="19" as="offset" />
          </mxGeometry>
        </mxCell>
        <mxCell id="xIkDIPTrsvpT3gbHnP_f-24" value="1" style="text;html=1;align=center;verticalAlign=middle;resizable=0;points=[];autosize=1;fontFamily=Times New Roman;fontSize=13;" vertex="1" parent="1">
          <mxGeometry x="620" y="480" width="20" height="20" as="geometry" />
        </mxCell>
      </root>
    </mxGraphModel>
  </diagram>
</mxfile>
